# xmcd
#
# Track frame offsets: 
#        150
#        5472
#        25262
#        38995
#        54815
#        74145
#        90981
#        95821
#        115605
#        130984
#        145438
#        161984
#        176337
#        195574
#        214765
#
# Disc length: 2932 seconds
#
# Revision: 0
# Processed by: cddbd v1.5.2PL0 Copyright (c) Steve Scherf et al.
# Submitted via: ExactAudioCopy v0.99pb4
#
DISCID=d20b720f
DTITLE=Oshy - Da Life Of A Singer
DYEAR=2006
DGENRE=R&B
TTITLE0=Untitled
TTITLE1=Enuff Love
TTITLE2=Let's Get It In
TTITLE3=The Best Sex In The World
TTITLE4=Come Here Wit It
TTITLE5=If It's Possible
TTITLE6=Untitled
TTITLE7=I'm Sorry
TTITLE8=Girl It Ain't Nothing
TTITLE9=Give Me What I'm Asking 4
TTITLE10=Be With Someone New
TTITLE11=Poppin Bottles
TTITLE12=I Was Wrong
TTITLE13=What Am I Gonna Do?
TTITLE14=Untitled
EXTD=
EXTT0=
EXTT1=
EXTT2=
EXTT3=
EXTT4=
EXTT5=
EXTT6=
EXTT7=
EXTT8=
EXTT9=
EXTT10=
EXTT11=
EXTT12=
EXTT13=
EXTT14=
PLAYORDER=
